<svg xmlns="http://www.w3.org/2000/svg" width="256" height="256" viewBox="0 0 100 100"><rect width="100" height="100" rx="20" fill="#ffe53d"></rect><path fill="#fff" d="M74.45 27.45L74.45 27.45Q74.45 29.45 73.35 30.90Q72.25 32.35 70.85 33.15L70.85 33.15Q68.25 31.45 65.05 30.05Q61.85 28.65 57.15 28.65L57.15 28.65Q48.65 28.65 43.60 34.15Q38.55 39.65 38.55 50.05L38.55 50.05Q38.55 60.65 43.75 65.95Q48.95 71.25 57.75 71.25L57.75 71.25Q62.35 71.25 65.70 70Q69.05 68.75 71.65 67.05L71.65 67.05Q73.05 67.95 73.95 69.50Q74.85 71.05 74.85 73.05L74.85 73.05Q74.85 74.75 73.95 76.15Q73.05 77.55 70.95 78.65L70.95 78.65Q68.95 79.85 65.30 80.90Q61.65 81.95 56.25 81.95L56.25 81.95Q49.65 81.95 44 80.00Q38.35 78.05 34.15 74.10Q29.95 70.15 27.55 64.15Q25.15 58.15 25.15 50.05L25.15 50.05Q25.15 42.25 27.55 36.30Q29.95 30.35 34.10 26.30Q38.25 22.25 43.80 20.15Q49.35 18.05 55.55 18.05L55.55 18.05Q59.85 18.05 63.35 18.80Q66.85 19.55 69.35 20.85Q71.85 22.15 73.15 23.85Q74.45 25.55 74.45 27.45Z"></path></svg>